<mxfile host="app.diagrams.net" modified="2024-04-14T00:58:42.473Z" agent="Mozilla/5.0 (Windows NT 10.0; Win64; x64) AppleWebKit/537.36 (KHTML, like Gecko) Chrome/123.0.0.0 Safari/537.36" etag="m-APBDxO1l7RxNEijvah" version="24.2.5" type="github">
  <diagram name="第 1 页" id="AlqCxTVu3TJc-v6SwMY8">
    <mxGraphModel dx="1434" dy="746" grid="1" gridSize="10" guides="1" tooltips="1" connect="1" arrows="1" fold="1" page="1" pageScale="1" pageWidth="827" pageHeight="1169" math="0" shadow="0">
      <root>
        <mxCell id="0" />
        <mxCell id="1" parent="0" />
        <mxCell id="UvJ8Nit7HZf_VUGcbxaZ-45" value="&lt;h4 style=&quot;text-align: justify;&quot;&gt;&lt;span style=&quot;background-color: initial;&quot;&gt;CPU-C1&lt;/span&gt;&lt;/h4&gt;" style="rounded=0;whiteSpace=wrap;html=1;align=center;horizontal=1;verticalAlign=top;labelBackgroundColor=none;strokeWidth=3;" vertex="1" parent="1">
          <mxGeometry x="251" y="87" width="190" height="280" as="geometry" />
        </mxCell>
        <mxCell id="UvJ8Nit7HZf_VUGcbxaZ-46" value="&lt;h4 style=&quot;text-align: justify;&quot;&gt;&lt;span style=&quot;background-color: initial;&quot;&gt;CPU-C2&lt;/span&gt;&lt;/h4&gt;" style="rounded=0;whiteSpace=wrap;html=1;align=center;horizontal=1;verticalAlign=top;labelBackgroundColor=none;strokeWidth=3;" vertex="1" parent="1">
          <mxGeometry x="571" y="87" width="180" height="280" as="geometry" />
        </mxCell>
        <mxCell id="UvJ8Nit7HZf_VUGcbxaZ-47" value="线程1" style="rounded=1;whiteSpace=wrap;html=1;labelBackgroundColor=none;strokeWidth=2;" vertex="1" parent="1">
          <mxGeometry x="301" y="147" width="80" height="40" as="geometry" />
        </mxCell>
        <mxCell id="UvJ8Nit7HZf_VUGcbxaZ-48" value="线程2" style="rounded=1;whiteSpace=wrap;html=1;labelBackgroundColor=none;strokeWidth=2;" vertex="1" parent="1">
          <mxGeometry x="621" y="147" width="80" height="40" as="geometry" />
        </mxCell>
        <mxCell id="UvJ8Nit7HZf_VUGcbxaZ-49" value="工作内存" style="rounded=0;whiteSpace=wrap;html=1;verticalAlign=top;labelBackgroundColor=none;strokeWidth=2;" vertex="1" parent="1">
          <mxGeometry x="281" y="237" width="120" height="100" as="geometry" />
        </mxCell>
        <mxCell id="UvJ8Nit7HZf_VUGcbxaZ-50" value="工作内存" style="rounded=0;whiteSpace=wrap;html=1;verticalAlign=top;labelBackgroundColor=none;strokeWidth=2;" vertex="1" parent="1">
          <mxGeometry x="601" y="237" width="120" height="109" as="geometry" />
        </mxCell>
        <mxCell id="UvJ8Nit7HZf_VUGcbxaZ-51" value="" style="endArrow=classic;html=1;rounded=0;labelBackgroundColor=none;fontColor=default;" edge="1" parent="1" source="UvJ8Nit7HZf_VUGcbxaZ-49" target="UvJ8Nit7HZf_VUGcbxaZ-47">
          <mxGeometry width="50" height="50" relative="1" as="geometry">
            <mxPoint x="441" y="387" as="sourcePoint" />
            <mxPoint x="491" y="337" as="targetPoint" />
          </mxGeometry>
        </mxCell>
        <mxCell id="UvJ8Nit7HZf_VUGcbxaZ-52" value="use" style="edgeLabel;html=1;align=center;verticalAlign=middle;resizable=0;points=[];fontSize=13;" vertex="1" connectable="0" parent="UvJ8Nit7HZf_VUGcbxaZ-51">
          <mxGeometry x="0.24" y="2" relative="1" as="geometry">
            <mxPoint x="2" y="10" as="offset" />
          </mxGeometry>
        </mxCell>
        <mxCell id="UvJ8Nit7HZf_VUGcbxaZ-53" value="" style="endArrow=classic;html=1;rounded=0;entryX=0.5;entryY=1;entryDx=0;entryDy=0;labelBackgroundColor=none;fontColor=default;" edge="1" parent="1" source="UvJ8Nit7HZf_VUGcbxaZ-50" target="UvJ8Nit7HZf_VUGcbxaZ-48">
          <mxGeometry width="50" height="50" relative="1" as="geometry">
            <mxPoint x="501" y="237" as="sourcePoint" />
            <mxPoint x="501" y="187" as="targetPoint" />
          </mxGeometry>
        </mxCell>
        <mxCell id="UvJ8Nit7HZf_VUGcbxaZ-54" value="use" style="edgeLabel;html=1;align=center;verticalAlign=middle;resizable=0;points=[];fontSize=13;" vertex="1" connectable="0" parent="UvJ8Nit7HZf_VUGcbxaZ-53">
          <mxGeometry x="0.12" y="-2" relative="1" as="geometry">
            <mxPoint x="-2" y="7" as="offset" />
          </mxGeometry>
        </mxCell>
        <mxCell id="UvJ8Nit7HZf_VUGcbxaZ-55" value="i=0" style="rounded=1;whiteSpace=wrap;html=1;labelBackgroundColor=none;fillColor=#6a00ff;fontColor=#ffffff;strokeColor=#3700CC;" vertex="1" parent="1">
          <mxGeometry x="316" y="275" width="50" height="30" as="geometry" />
        </mxCell>
        <mxCell id="UvJ8Nit7HZf_VUGcbxaZ-56" value="i=0" style="rounded=1;whiteSpace=wrap;html=1;labelBackgroundColor=none;fillColor=#6a00ff;fontColor=#ffffff;strokeColor=#3700CC;" vertex="1" parent="1">
          <mxGeometry x="636" y="307" width="50" height="30" as="geometry" />
        </mxCell>
        <mxCell id="UvJ8Nit7HZf_VUGcbxaZ-57" value="&lt;b&gt;&lt;font style=&quot;font-size: 28px;&quot;&gt;总线&lt;/font&gt;&lt;/b&gt;" style="shape=process;whiteSpace=wrap;html=1;backgroundOutline=1;labelBackgroundColor=none;strokeWidth=2;dashed=1;" vertex="1" parent="1">
          <mxGeometry x="121" y="496" width="760" height="60" as="geometry" />
        </mxCell>
        <mxCell id="UvJ8Nit7HZf_VUGcbxaZ-58" value="主内存" style="rounded=0;whiteSpace=wrap;html=1;fontSize=19;verticalAlign=top;labelBackgroundColor=none;strokeWidth=3;" vertex="1" parent="1">
          <mxGeometry x="241" y="636" width="530" height="100" as="geometry" />
        </mxCell>
        <mxCell id="UvJ8Nit7HZf_VUGcbxaZ-59" value="i=0" style="rounded=1;whiteSpace=wrap;html=1;labelBackgroundColor=none;strokeColor=#230be0;strokeWidth=2;" vertex="1" parent="1">
          <mxGeometry x="381" y="676" width="105" height="40" as="geometry" />
        </mxCell>
        <mxCell id="UvJ8Nit7HZf_VUGcbxaZ-60" value="i=0" style="rounded=1;whiteSpace=wrap;html=1;labelBackgroundColor=none;" vertex="1" parent="1">
          <mxGeometry x="161" y="396" width="55" height="40" as="geometry" />
        </mxCell>
        <mxCell id="UvJ8Nit7HZf_VUGcbxaZ-61" value="i=0" style="rounded=1;whiteSpace=wrap;html=1;labelBackgroundColor=none;" vertex="1" parent="1">
          <mxGeometry x="791" y="396" width="55" height="40" as="geometry" />
        </mxCell>
        <mxCell id="UvJ8Nit7HZf_VUGcbxaZ-62" value="" style="endArrow=classic;html=1;rounded=0;exitX=0.096;exitY=0.008;exitDx=0;exitDy=0;exitPerimeter=0;entryX=0.5;entryY=1;entryDx=0;entryDy=0;labelBackgroundColor=none;fontColor=default;strokeWidth=2;fillColor=#6a00ff;strokeColor=#3700CC;" edge="1" parent="1" source="UvJ8Nit7HZf_VUGcbxaZ-58" target="UvJ8Nit7HZf_VUGcbxaZ-60">
          <mxGeometry width="50" height="50" relative="1" as="geometry">
            <mxPoint x="441" y="466" as="sourcePoint" />
            <mxPoint x="491" y="416" as="targetPoint" />
            <Array as="points">
              <mxPoint x="189" y="546" />
            </Array>
          </mxGeometry>
        </mxCell>
        <mxCell id="UvJ8Nit7HZf_VUGcbxaZ-63" value="read" style="edgeLabel;html=1;align=center;verticalAlign=middle;resizable=0;points=[];fontSize=20;labelBackgroundColor=none;" vertex="1" connectable="0" parent="UvJ8Nit7HZf_VUGcbxaZ-62">
          <mxGeometry x="-0.4816" relative="1" as="geometry">
            <mxPoint x="-83" y="-68" as="offset" />
          </mxGeometry>
        </mxCell>
        <mxCell id="UvJ8Nit7HZf_VUGcbxaZ-64" value="" style="endArrow=classic;html=1;rounded=0;entryX=0;entryY=0.75;entryDx=0;entryDy=0;exitX=0.5;exitY=0;exitDx=0;exitDy=0;labelBackgroundColor=none;fontColor=default;strokeWidth=2;fillColor=#6a00ff;strokeColor=#3700CC;" edge="1" parent="1" source="UvJ8Nit7HZf_VUGcbxaZ-60" target="UvJ8Nit7HZf_VUGcbxaZ-49">
          <mxGeometry width="50" height="50" relative="1" as="geometry">
            <mxPoint x="51" y="406" as="sourcePoint" />
            <mxPoint x="101" y="356" as="targetPoint" />
            <Array as="points">
              <mxPoint x="189" y="312" />
            </Array>
          </mxGeometry>
        </mxCell>
        <mxCell id="UvJ8Nit7HZf_VUGcbxaZ-65" value="load" style="edgeLabel;html=1;align=center;verticalAlign=middle;resizable=0;points=[];fontSize=18;labelBackgroundColor=none;" vertex="1" connectable="0" parent="UvJ8Nit7HZf_VUGcbxaZ-64">
          <mxGeometry x="-0.409" y="-1" relative="1" as="geometry">
            <mxPoint as="offset" />
          </mxGeometry>
        </mxCell>
        <mxCell id="UvJ8Nit7HZf_VUGcbxaZ-66" value="" style="endArrow=classic;html=1;rounded=0;entryX=0.5;entryY=1;entryDx=0;entryDy=0;labelBackgroundColor=none;fontColor=default;strokeWidth=2;exitX=0.938;exitY=0.01;exitDx=0;exitDy=0;exitPerimeter=0;fillColor=#6a00ff;strokeColor=#3700CC;" edge="1" parent="1" source="UvJ8Nit7HZf_VUGcbxaZ-58" target="UvJ8Nit7HZf_VUGcbxaZ-61">
          <mxGeometry width="50" height="50" relative="1" as="geometry">
            <mxPoint x="731" y="636" as="sourcePoint" />
            <mxPoint x="743.12" y="446" as="targetPoint" />
            <Array as="points">
              <mxPoint x="819" y="566" />
            </Array>
          </mxGeometry>
        </mxCell>
        <mxCell id="UvJ8Nit7HZf_VUGcbxaZ-67" value="read" style="edgeLabel;html=1;align=center;verticalAlign=middle;resizable=0;points=[];fontSize=20;labelBackgroundColor=none;" vertex="1" connectable="0" parent="UvJ8Nit7HZf_VUGcbxaZ-66">
          <mxGeometry x="-0.4816" relative="1" as="geometry">
            <mxPoint x="68" y="-77" as="offset" />
          </mxGeometry>
        </mxCell>
        <mxCell id="UvJ8Nit7HZf_VUGcbxaZ-68" value="" style="endArrow=classic;html=1;rounded=0;entryX=0.992;entryY=0.688;entryDx=0;entryDy=0;exitX=0.5;exitY=0;exitDx=0;exitDy=0;entryPerimeter=0;labelBackgroundColor=none;fontColor=default;strokeWidth=2;fillColor=#6a00ff;strokeColor=#3700CC;" edge="1" parent="1" source="UvJ8Nit7HZf_VUGcbxaZ-61" target="UvJ8Nit7HZf_VUGcbxaZ-50">
          <mxGeometry width="50" height="50" relative="1" as="geometry">
            <mxPoint x="821.5" y="396" as="sourcePoint" />
            <mxPoint x="913.5" y="312" as="targetPoint" />
            <Array as="points">
              <mxPoint x="819" y="312" />
            </Array>
          </mxGeometry>
        </mxCell>
        <mxCell id="UvJ8Nit7HZf_VUGcbxaZ-69" value="load" style="edgeLabel;html=1;align=center;verticalAlign=middle;resizable=0;points=[];fontSize=18;labelBackgroundColor=none;" vertex="1" connectable="0" parent="UvJ8Nit7HZf_VUGcbxaZ-68">
          <mxGeometry x="-0.409" y="-1" relative="1" as="geometry">
            <mxPoint as="offset" />
          </mxGeometry>
        </mxCell>
        <mxCell id="UvJ8Nit7HZf_VUGcbxaZ-70" value="i=1" style="rounded=1;whiteSpace=wrap;html=1;dashed=1;dashPattern=1 2;labelBackgroundColor=none;strokeWidth=2;fillColor=#dae8fc;strokeColor=#6c8ebf;" vertex="1" parent="1">
          <mxGeometry x="636" y="266" width="50" height="30" as="geometry" />
        </mxCell>
        <mxCell id="UvJ8Nit7HZf_VUGcbxaZ-71" value="" style="endArrow=classic;html=1;rounded=0;strokeWidth=2;dashed=1;dashPattern=1 1;" edge="1" parent="1" source="UvJ8Nit7HZf_VUGcbxaZ-50">
          <mxGeometry width="50" height="50" relative="1" as="geometry">
            <mxPoint x="431" y="436" as="sourcePoint" />
            <mxPoint x="551" y="496" as="targetPoint" />
            <Array as="points">
              <mxPoint x="551" y="292" />
              <mxPoint x="551" y="466" />
            </Array>
          </mxGeometry>
        </mxCell>
        <mxCell id="UvJ8Nit7HZf_VUGcbxaZ-72" value="store" style="edgeLabel;html=1;align=center;verticalAlign=middle;resizable=0;points=[];fontSize=16;fontStyle=1" vertex="1" connectable="0" parent="UvJ8Nit7HZf_VUGcbxaZ-71">
          <mxGeometry x="0.0357" relative="1" as="geometry">
            <mxPoint y="22" as="offset" />
          </mxGeometry>
        </mxCell>
        <mxCell id="UvJ8Nit7HZf_VUGcbxaZ-73" value="i=2" style="rounded=1;whiteSpace=wrap;html=1;dashed=1;dashPattern=1 2;labelBackgroundColor=none;strokeWidth=2;fillColor=#dae8fc;strokeColor=#6c8ebf;" vertex="1" parent="1">
          <mxGeometry x="611" y="586" width="50" height="30" as="geometry" />
        </mxCell>
        <mxCell id="UvJ8Nit7HZf_VUGcbxaZ-74" value="" style="endArrow=classic;html=1;rounded=0;entryX=0.25;entryY=0;entryDx=0;entryDy=0;strokeWidth=2;dashed=1;dashPattern=1 2;" edge="1" parent="1" source="UvJ8Nit7HZf_VUGcbxaZ-57" target="UvJ8Nit7HZf_VUGcbxaZ-73">
          <mxGeometry width="50" height="50" relative="1" as="geometry">
            <mxPoint x="401" y="456" as="sourcePoint" />
            <mxPoint x="451" y="406" as="targetPoint" />
          </mxGeometry>
        </mxCell>
        <mxCell id="UvJ8Nit7HZf_VUGcbxaZ-75" value="" style="endArrow=classic;html=1;rounded=0;exitX=0.5;exitY=1;exitDx=0;exitDy=0;entryX=0.5;entryY=0;entryDx=0;entryDy=0;fillColor=#d80073;strokeColor=#A50040;" edge="1" parent="1" source="UvJ8Nit7HZf_VUGcbxaZ-73" target="UvJ8Nit7HZf_VUGcbxaZ-76">
          <mxGeometry width="50" height="50" relative="1" as="geometry">
            <mxPoint x="871" y="706" as="sourcePoint" />
            <mxPoint x="921" y="656" as="targetPoint" />
          </mxGeometry>
        </mxCell>
        <mxCell id="UvJ8Nit7HZf_VUGcbxaZ-76" value="i=2" style="rounded=1;whiteSpace=wrap;html=1;dashed=1;dashPattern=1 2;labelBackgroundColor=none;strokeWidth=2;fillColor=#dae8fc;strokeColor=#6c8ebf;" vertex="1" parent="1">
          <mxGeometry x="611" y="681" width="50" height="30" as="geometry" />
        </mxCell>
        <mxCell id="UvJ8Nit7HZf_VUGcbxaZ-77" value="" style="endArrow=classic;html=1;rounded=0;exitX=0;exitY=0.5;exitDx=0;exitDy=0;fillColor=#d80073;strokeColor=#A50040;" edge="1" parent="1" source="UvJ8Nit7HZf_VUGcbxaZ-76" target="UvJ8Nit7HZf_VUGcbxaZ-59">
          <mxGeometry width="50" height="50" relative="1" as="geometry">
            <mxPoint x="441" y="466" as="sourcePoint" />
            <mxPoint x="491" y="416" as="targetPoint" />
          </mxGeometry>
        </mxCell>
        <mxCell id="UvJ8Nit7HZf_VUGcbxaZ-78" value="update" style="edgeLabel;html=1;align=center;verticalAlign=middle;resizable=0;points=[];fontSize=15;" vertex="1" connectable="0" parent="UvJ8Nit7HZf_VUGcbxaZ-77">
          <mxGeometry x="0.184" y="2" relative="1" as="geometry">
            <mxPoint as="offset" />
          </mxGeometry>
        </mxCell>
        <mxCell id="UvJ8Nit7HZf_VUGcbxaZ-79" value="i=i++" style="rounded=1;whiteSpace=wrap;html=1;dashed=1;dashPattern=1 2;labelBackgroundColor=none;strokeWidth=2;" vertex="1" parent="1">
          <mxGeometry x="170" y="152" width="50" height="30" as="geometry" />
        </mxCell>
        <mxCell id="UvJ8Nit7HZf_VUGcbxaZ-80" value="" style="endArrow=none;dashed=1;html=1;rounded=0;" edge="1" parent="1" source="UvJ8Nit7HZf_VUGcbxaZ-81" target="UvJ8Nit7HZf_VUGcbxaZ-79">
          <mxGeometry width="50" height="50" relative="1" as="geometry">
            <mxPoint x="341" y="392" as="sourcePoint" />
            <mxPoint x="501" y="402" as="targetPoint" />
          </mxGeometry>
        </mxCell>
        <mxCell id="UvJ8Nit7HZf_VUGcbxaZ-81" value="i=?" style="text;html=1;align=center;verticalAlign=middle;whiteSpace=wrap;rounded=0;strokeColor=default;" vertex="1" parent="1">
          <mxGeometry x="165" y="207" width="60" height="30" as="geometry" />
        </mxCell>
        <mxCell id="UvJ8Nit7HZf_VUGcbxaZ-82" value="i=i++" style="rounded=1;whiteSpace=wrap;html=1;dashed=1;dashPattern=1 2;labelBackgroundColor=none;strokeWidth=2;fillColor=#dae8fc;strokeColor=#6c8ebf;" vertex="1" parent="1">
          <mxGeometry x="771" y="152" width="50" height="30" as="geometry" />
        </mxCell>
        <mxCell id="UvJ8Nit7HZf_VUGcbxaZ-83" value="" style="endArrow=classic;html=1;rounded=0;exitX=1;exitY=0.5;exitDx=0;exitDy=0;entryX=0;entryY=0.5;entryDx=0;entryDy=0;" edge="1" parent="1" source="UvJ8Nit7HZf_VUGcbxaZ-48" target="UvJ8Nit7HZf_VUGcbxaZ-82">
          <mxGeometry width="50" height="50" relative="1" as="geometry">
            <mxPoint x="451" y="466" as="sourcePoint" />
            <mxPoint x="501" y="416" as="targetPoint" />
          </mxGeometry>
        </mxCell>
        <mxCell id="UvJ8Nit7HZf_VUGcbxaZ-84" value="" style="endArrow=classic;html=1;rounded=0;exitX=0.5;exitY=1;exitDx=0;exitDy=0;entryX=1;entryY=0.25;entryDx=0;entryDy=0;" edge="1" parent="1" source="UvJ8Nit7HZf_VUGcbxaZ-82" target="UvJ8Nit7HZf_VUGcbxaZ-50">
          <mxGeometry width="50" height="50" relative="1" as="geometry">
            <mxPoint x="861" y="226" as="sourcePoint" />
            <mxPoint x="911" y="176" as="targetPoint" />
            <Array as="points">
              <mxPoint x="796" y="264" />
            </Array>
          </mxGeometry>
        </mxCell>
        <mxCell id="UvJ8Nit7HZf_VUGcbxaZ-85" value="assign 赋值" style="edgeLabel;html=1;align=center;verticalAlign=middle;resizable=0;points=[];fontSize=13;" vertex="1" connectable="0" parent="UvJ8Nit7HZf_VUGcbxaZ-84">
          <mxGeometry x="-0.4395" y="1" relative="1" as="geometry">
            <mxPoint as="offset" />
          </mxGeometry>
        </mxCell>
        <mxCell id="UvJ8Nit7HZf_VUGcbxaZ-86" value="" style="endArrow=classic;html=1;rounded=0;entryX=1;entryY=0.5;entryDx=0;entryDy=0;exitX=0;exitY=0.5;exitDx=0;exitDy=0;" edge="1" parent="1" source="UvJ8Nit7HZf_VUGcbxaZ-47" target="UvJ8Nit7HZf_VUGcbxaZ-79">
          <mxGeometry width="50" height="50" relative="1" as="geometry">
            <mxPoint x="291" y="166" as="sourcePoint" />
            <mxPoint x="351" y="116" as="targetPoint" />
          </mxGeometry>
        </mxCell>
        <mxCell id="UvJ8Nit7HZf_VUGcbxaZ-87" value="" style="endArrow=classic;html=1;rounded=0;exitX=0;exitY=0.25;exitDx=0;exitDy=0;entryX=0.092;entryY=-0.02;entryDx=0;entryDy=0;entryPerimeter=0;fillColor=#0050ef;strokeColor=#001DBC;strokeWidth=2;" edge="1" parent="1" source="UvJ8Nit7HZf_VUGcbxaZ-59" target="UvJ8Nit7HZf_VUGcbxaZ-58">
          <mxGeometry width="50" height="50" relative="1" as="geometry">
            <mxPoint x="451" y="466" as="sourcePoint" />
            <mxPoint x="501" y="416" as="targetPoint" />
          </mxGeometry>
        </mxCell>
        <mxCell id="UvJ8Nit7HZf_VUGcbxaZ-88" value="" style="endArrow=classic;html=1;rounded=0;entryX=0.938;entryY=0;entryDx=0;entryDy=0;entryPerimeter=0;exitX=1;exitY=0.25;exitDx=0;exitDy=0;fillColor=#6a00ff;strokeColor=#3700CC;strokeWidth=2;" edge="1" parent="1" source="UvJ8Nit7HZf_VUGcbxaZ-59" target="UvJ8Nit7HZf_VUGcbxaZ-58">
          <mxGeometry width="50" height="50" relative="1" as="geometry">
            <mxPoint x="451" y="466" as="sourcePoint" />
            <mxPoint x="501" y="416" as="targetPoint" />
          </mxGeometry>
        </mxCell>
      </root>
    </mxGraphModel>
  </diagram>
</mxfile>
